<?xml version="1.0" encoding="utf-8"?>
<!-- Generator: Adobe Illustrator 18.0.0, SVG Export Plug-In . SVG Version: 6.00 Build 0)  -->
<!DOCTYPE svg PUBLIC "-//W3C//DTD SVG 1.1//EN" "http://www.w3.org/Graphics/SVG/1.1/DTD/svg11.dtd">
<svg version="1.1" id="Layer_1" xmlns="http://www.w3.org/2000/svg" xmlns:xlink="http://www.w3.org/1999/xlink" x="0px" y="0px"
	 width="100" height="83" viewBox="0 0 100 83" enable-background="new 0 0 100 83" xml:space="preserve">
<g>
	
	
	
	
	<path fill="#ffffff" d="M52.5,39.6c-1.1-1.4-5.6-6.5-7.1-8.6c-1.4-1.9-2.4-3.8-2.6-4.2v-0.1c0,0,0,0,0,0c0,0,0,0,0,0v0.1
		c-0.2,0.4-1.2,2.3-2.6,4.2c-1.6,2.1-6,7.2-7.1,8.6c-1,1.3-2.4,3.3-2.8,5.4c-0.1,0.3-0.1,0.7-0.1,1.1c0,3.2,2.7,5.7,6,5.7
		c2.1,0,3.9-1,5-2.5c0.2,0.2,0.9,1.3-0.5,4.1c-1.5,3.1-2.6,3.7-2.6,3.7h4.6h0h4.6c0,0-1.1-0.6-2.6-3.7c-1.4-2.7-0.6-3.9-0.5-4.1
		c1.1,1.5,2.9,2.5,5,2.5c3.3,0,6-2.6,6-5.7c0-0.4,0-0.7-0.1-1.1C55,42.9,53.5,40.9,52.5,39.6L52.5,39.6z"/>
	<path fill="#ffffff" d="M58.4,60.4c-4.2,3.6-9.7,5.8-15.7,5.8c-13.4,0-24.3-10.9-24.3-24.3c0-13.4,10.9-24.3,24.3-24.3
		c5.9,0,11.4,2.1,15.6,5.7l14.8-8.6c-0.5-0.6-1-1.1-1.6-1.7c-3.7-3.7-8.1-6.7-12.9-8.7C56,3.3,53.5,2.5,50.8,2v7.5
		c0,0.1,0,0.2-0.1,0.3c-0.2,1.2-3.8,2.1-8.1,2.1c-4.3,0-7.8-0.9-8.1-2.1c0-0.1-0.1-0.2-0.1-0.3V2c-2.6,0.5-5.2,1.3-7.7,2.4
		c-4.8,2.1-9.2,5-12.9,8.7c-0.6,0.6-1.2,1.2-1.7,1.8l6.5,3.8c0.1,0.1,0.2,0.1,0.3,0.2c0.9,0.8-0.1,4.3-2.2,8
		c-2.2,3.7-4.7,6.3-5.8,5.9c-0.1,0-0.2-0.1-0.3-0.1L4.1,29C2.7,33.1,2,37.5,2,41.9c0,4.4,0.7,8.8,2.1,12.9l6.5-3.8
		c0.1-0.1,0.2-0.1,0.3-0.1c1.1-0.4,3.7,2.2,5.8,5.9c2.2,3.7,3.1,7.2,2.2,8c-0.1,0.1-0.2,0.2-0.3,0.2l-6.5,3.8
		c0.5,0.6,1.1,1.2,1.7,1.8c3.7,3.7,8.1,6.7,12.9,8.7c2.5,1.1,5.1,1.9,7.7,2.4v-7.7c0-0.1,0-0.2,0.1-0.3c0.2-1.2,3.8-2.1,8.1-2.1
		c4.3,0,7.8,0.9,8.1,2.1c0,0.1,0.1,0.2,0.1,0.3v7.7c2.6-0.5,5.2-1.3,7.7-2.4c4.8-2.1,9.2-5,12.9-8.7c0.6-0.6,1.1-1.2,1.7-1.8
		L58.4,60.4L58.4,60.4z"/>
</g>
</svg>
